<svg width="24" height="24" viewBox="0 0 24 24" fill="none" xmlns="http://www.w3.org/2000/svg">
<path d="M22 3.99899C21.22 4.46199 19.655 5.09299 18.735 5.27499C18.708 5.28199 18.686 5.29099 18.66 5.29799C17.847 4.49599 16.733 3.99899 15.5 3.99899C13.015 3.99899 11 6.01399 11 8.49899C11 8.62999 10.989 8.87099 11 8.99899C7.647 8.99899 5.095 7.24299 3.265 4.99899C3.066 5.49899 2.979 6.28899 2.979 7.03099C2.979 8.43199 4.074 9.80799 5.779 10.661C5.465 10.742 5.119 10.8 4.759 10.8C4.178 10.8 3.563 10.647 3 10.183C3 10.2 3 10.216 3 10.234C3 12.192 5.078 13.525 6.926 13.896C6.551 14.117 5.795 14.139 5.426 14.139C5.166 14.139 4.246 14.02 4 13.974C4.514 15.579 6.368 16.481 8.135 16.513C6.753 17.597 5.794 17.999 2.964 17.999H2C3.788 19.145 6.065 20 8.347 20C15.777 20 20 14.337 20 8.99899C20 8.91299 19.998 8.73299 19.995 8.55199C19.995 8.53399 20 8.51699 20 8.49899C20 8.47199 19.992 8.44599 19.992 8.41899C19.989 8.28299 19.986 8.15599 19.983 8.08999C20.773 7.51999 21.458 6.80899 22 5.99899C21.275 6.32099 20.497 6.53699 19.68 6.63499C20.514 6.13499 21.699 4.94299 22 3.99899Z" fill="#310A90"/>
</svg>
