<svg width="24" height="24" viewBox="0 0 24 24" fill="none" xmlns="http://www.w3.org/2000/svg">
<path d="M10.9 2.10001C6.29999 2.60001 2.59999 6.30001 2.09999 10.8C1.59999 15.5 4.29999 19.7 8.39999 21.3C8.69999 21.4 8.99999 21.2 8.99999 20.8V19.2C8.99999 19.2 8.59999 19.3 8.09999 19.3C6.69999 19.3 6.09999 18.1 5.99999 17.4C5.89999 17 5.69999 16.7 5.39999 16.4C5.09999 16.3 4.99999 16.3 4.99999 16.2C4.99999 16 5.29999 16 5.39999 16C5.99999 16 6.49999 16.7 6.69999 17C7.19999 17.8 7.79999 18 8.09999 18C8.49999 18 8.79999 17.9 8.99999 17.8C9.09999 17.1 9.39999 16.4 9.99999 16C7.69999 15.5 5.99999 14.2 5.99999 12C5.99999 10.9 6.49999 9.80001 7.19999 9.00001C7.09999 8.80001 6.99999 8.30001 6.99999 7.60001C6.99999 7.20001 6.99999 6.60001 7.29999 6.00001C7.29999 6.00001 8.69999 6.00001 10.1 7.30001C10.6 7.10001 11.3 7.00001 12 7.00001C12.7 7.00001 13.4 7.10001 14 7.30001C15.3 6.00001 16.8 6.00001 16.8 6.00001C17 6.60001 17 7.20001 17 7.60001C17 8.40001 16.9 8.80001 16.8 9.00001C17.5 9.80001 18 10.8 18 12C18 14.2 16.3 15.5 14 16C14.6 16.5 15 17.4 15 18.3V20.9C15 21.2 15.3 21.5 15.7 21.4C19.4 19.9 22 16.3 22 12.1C22 6.10001 16.9 1.40001 10.9 2.10001Z" fill="#310A90"/>
</svg>
